<svg width="30" height="30" viewBox="0 0 30 30" fill="none" xmlns="http://www.w3.org/2000/svg">
<path d="M15 0C23.2844 0 30 6.71562 30 15C30 23.2844 23.2844 30 15 30C6.71562 30 0 23.2844 0 15C0 6.71562 6.71562 0 15 0ZM20.1744 21.1144C20.45 20.2681 21.7431 11.8313 21.9025 10.1688C21.9506 9.665 21.7919 9.33063 21.48 9.18125C21.1031 9 20.545 9.09063 19.8969 9.32438C19.0087 9.64438 7.65312 14.4662 6.99687 14.745C6.375 15.0094 5.78625 15.2975 5.78625 15.715C5.78625 16.0088 5.96063 16.1738 6.44063 16.345C6.94 16.5231 8.19812 16.9044 8.94125 17.1094C9.65687 17.3069 10.4712 17.1356 10.9275 16.8519C11.4112 16.5513 16.9962 12.8144 17.3969 12.4869C17.7975 12.1594 18.1169 12.5788 17.7894 12.9069C17.4619 13.2344 13.6288 16.955 13.1231 17.47C12.5094 18.0956 12.945 18.7437 13.3569 19.0031C13.8269 19.2994 17.2087 21.5675 17.7181 21.9313C18.2275 22.295 18.7438 22.46 19.2169 22.46C19.69 22.46 19.9387 21.8375 20.1744 21.1144Z" fill="white"/>
</svg>
