<svg width="927" height="927" viewBox="0 0 927 927" fill="none" xmlns="http://www.w3.org/2000/svg">
<path fill-rule="evenodd" clip-rule="evenodd" d="M463.5 927C719.484 927 927 719.484 927 463.5C927 207.516 719.484 0 463.5 0C207.516 0 0 207.516 0 463.5C0 719.484 207.516 927 463.5 927ZM463.5 897C702.915 897 897 702.915 897 463.5C897 224.085 702.915 30 463.5 30C224.085 30 30 224.085 30 463.5C30 702.915 224.085 897 463.5 897Z" fill="black"/>
<g clip-path="url(#clip0)">
<path d="M713.54 578.63C704.88 557.8 690.85 540.72 675.54 524.63C664.88 513.39 653.59 502.76 642.88 491.56C636.28 484.66 636.06 479.04 640.88 470.76C645.357 463.347 650.21 456.168 655.42 449.25C672.24 426.1 690.23 403.75 704.7 378.97C714.19 362.71 722.79 346.12 716.78 326.2C715.94 323.43 715.41 321.6 711.78 321.61C672.447 321.763 633.114 321.763 593.78 321.61C591.03 321.61 589.7 322.37 588.84 325.17C577.43 362.17 559.71 396.17 538.1 428.17C533.719 434.695 528.584 440.679 522.8 446C517.32 451 515.8 450.67 513.72 443.37C512.866 440.335 512.241 437.239 511.85 434.11C509.51 416.65 511.21 399.18 512.24 381.75C513.38 362.44 514.16 343.26 509.32 324.22C508.24 319.97 506.69 318.22 502.54 317.28C471 310.45 439.26 310 407.22 312.19C387.4 313.57 375 326 361.87 338.79C370.2 341.68 377.97 344.62 385.87 347.06C393.17 349.31 397.21 354.06 398.97 361.32C401.3 370.93 401.97 380.71 402.44 390.51C403.2 407.51 402.44 424.45 397.84 440.97C396.84 444.59 396 449.84 392.39 450.42C388.78 451 386.39 446.32 384.03 443.32C374.61 431.07 368.21 417.15 362.03 403.14C350 376 341.26 347.72 330.88 320C329.35 315.89 327.31 314.55 322.93 314.58C286.61 314.76 250.29 314.69 213.93 314.67C211.93 314.67 209.93 314.48 207.93 314.37V319.37C209.57 320.29 209.64 322.09 210.22 323.58C221.13 351.48 232 379.4 244 406.8C261.5 446.46 280.69 485.19 306.77 520.1C327.84 548.31 352.77 572.23 383.9 589.2C421.44 609.63 462 615.59 504 615C507.17 615 507.86 613.67 507.86 610.79C507.86 600.47 507.49 590.15 508.8 579.85C510.099 569.746 513.728 560.082 519.4 551.62C523.4 545.52 526.06 545.22 532.04 549.62C534.552 551.535 536.949 553.595 539.22 555.79C548.49 564.49 555.8 574.9 564.01 584.51C578.32 601.25 595.51 612.76 618.01 614.1C650.46 616.03 683.01 614.5 715.43 614.95C717.63 614.95 718.81 614.49 718.73 611.95C718.47 600.61 718 589.34 713.54 578.63ZM677.07 584.56C662.41 584.56 647.7 583.81 633.07 584.77C611.47 586.18 595.61 577.32 582.95 560.59C575.95 551.3 568.61 542.19 560.15 534.11C554.24 528.46 548.02 523.11 540.46 519.78C523.53 512.31 506.18 517.78 494.84 534.46C485.71 547.88 480 562.71 478.92 579C478.62 583.33 477.15 584.56 472.81 584.16C442.2 581.28 413.39 573.07 387.33 556.3C363.02 540.65 343.58 520.07 326.89 496.72C303 463.38 285.36 426.67 269.14 389.2C263.33 375.78 258 362.13 252.34 348.65C251.1 345.7 251.75 345 254.85 345C271.34 345.11 287.85 345.18 304.32 345C307.96 344.95 308.77 346.92 309.69 349.56C318.03 373.56 326.47 397.56 337.01 420.81C344.38 437 352.29 453 364.38 466.4C366.802 469.143 369.481 471.648 372.38 473.88C389.5 486.73 410.16 482.18 420.79 463.32C426.18 453.75 428.88 443.32 430.37 432.54C434.03 406.12 433.75 379.8 427.87 353.68C427.141 350.597 426.137 347.584 424.87 344.68C423.87 342.26 423.74 341.1 426.94 341.07C442.77 340.89 458.59 340.94 474.31 342.91C483.14 344.02 483.04 344.26 483.13 353.41C483.38 377.72 479.85 401.93 480.96 426.27C481.43 436.6 482.82 446.76 486.41 456.57C495 480.06 520.08 488.45 541 469.77C556.91 455.57 568.3 438.06 578.9 419.92C590.883 399.359 601.316 377.933 610.11 355.82C611.31 352.82 612.96 351.93 616.06 351.95C637.55 352.07 659.06 352.11 680.52 351.95C684.97 351.95 684.61 353.27 682.97 356.38C673.19 374.84 660.68 391.47 648.42 408.27C637.15 423.73 625.07 438.62 615.31 455.14C603.26 475.53 605.31 494.42 620.93 511.98C633.35 525.93 647.93 537.75 660.06 551.98C667.55 560.71 674.93 569.5 680.62 579.55C681.41 580.95 682.05 582.44 682.76 583.91C680.7 585 678.84 584.55 677.07 584.56V584.56Z" fill="black"/>
</g>
<defs>
<clipPath id="clip0">
<rect width="510.82" height="304.12" fill="white" transform="translate(208 311)"/>
</clipPath>
</defs>
</svg>
